<?xml version="1.0" encoding="UTF-8"?>
<!DOCTYPE svg PUBLIC "-//W3C//DTD SVG 1.1//EN" "http://www.w3.org/Graphics/SVG/1.1/DTD/svg11.dtd">
<svg xmlns="http://www.w3.org/2000/svg" version="1.1" width="224px" height="225px" style="shape-rendering:geometricPrecision; text-rendering:geometricPrecision; image-rendering:optimizeQuality; fill-rule:evenodd; clip-rule:evenodd" xmlns:xlink="http://www.w3.org/1999/xlink">
<g><path style="opacity:1" fill="#fefefe" d="M -0.5,-0.5 C 74.1667,-0.5 148.833,-0.5 223.5,-0.5C 223.5,74.5 223.5,149.5 223.5,224.5C 148.833,224.5 74.1667,224.5 -0.5,224.5C -0.5,149.5 -0.5,74.5 -0.5,-0.5 Z"/></g>
<g><path style="opacity:1" fill="#b76d62" d="M 123.5,50.5 C 124.768,54.5224 124.768,58.689 123.5,63C 123.167,63.5 122.833,64 122.5,64.5C 120.568,63.4798 118.568,63.3131 116.5,64C 118.246,64.4709 119.913,65.1376 121.5,66C 120.437,67.1882 119.103,67.6882 117.5,67.5C 111.833,66.1667 106.167,66.1667 100.5,67.5C 98.2547,67.4588 97.5881,66.6255 98.5,65C 104.103,63.8763 109.769,63.2096 115.5,63C 108.805,62.3354 102.138,62.502 95.5,63.5C 95.5,62.5 95.5,61.5 95.5,60.5C 104.167,60.5 112.833,60.5 121.5,60.5C 122.167,57.1667 122.833,53.8333 123.5,50.5 Z"/></g>
<g><path style="opacity:1" fill="#632d1f" d="M 100.5,67.5 C 106.167,66.1667 111.833,66.1667 117.5,67.5C 116.508,67.3284 115.842,67.6618 115.5,68.5C 111.167,68.5 106.833,68.5 102.5,68.5C 102.158,67.6618 101.492,67.3284 100.5,67.5 Z"/></g>
<g><path style="opacity:1" fill="#b96a64" d="M 102.5,68.5 C 106.833,68.5 111.167,68.5 115.5,68.5C 116.833,68.5 118.167,68.5 119.5,68.5C 119.5,70.1667 119.5,71.8333 119.5,73.5C 112.833,73.5 106.167,73.5 99.5,73.5C 99.5,71.8333 99.5,70.1667 99.5,68.5C 100.5,68.5 101.5,68.5 102.5,68.5 Z"/></g>
<g><path style="opacity:1" fill="#2b1616" d="M 127.5,70.5 C 136.562,74.2882 145.729,77.6216 155,80.5C 155.388,83.6846 154.721,86.6846 153,89.5C 150.604,92.0666 148.104,94.4 145.5,96.5C 144.833,97.1667 144.167,97.8333 143.5,98.5C 143.5,97.1667 143.5,95.8333 143.5,94.5C 150.635,92.188 153.635,87.5213 152.5,80.5C 150.735,79.5386 148.735,79.2053 146.5,79.5C 141.972,77.5961 137.306,75.7628 132.5,74C 130.416,73.3028 128.749,72.1361 127.5,70.5 Z"/></g>
<g><path style="opacity:1" fill="#21110e" d="M 127.5,70.5 C 125.418,70.528 123.584,69.8613 122,68.5C 121.506,70.1341 121.34,71.8008 121.5,73.5C 134.68,74.3465 142.014,81.3465 143.5,94.5C 140.848,85.011 134.848,78.511 125.5,75C 112.723,73.9614 100.056,74.4614 87.5,76.5C 90.2509,74.0255 93.5842,73.0255 97.5,73.5C 98.1667,73.5 98.8333,73.5 99.5,73.5C 106.167,73.5 112.833,73.5 119.5,73.5C 119.5,71.8333 119.5,70.1667 119.5,68.5C 118.167,68.5 116.833,68.5 115.5,68.5C 115.842,67.6618 116.508,67.3284 117.5,67.5C 119.103,67.6882 120.437,67.1882 121.5,66C 119.913,65.1376 118.246,64.4709 116.5,64C 118.568,63.3131 120.568,63.4798 122.5,64.5C 122.833,64 123.167,63.5 123.5,63C 124.768,58.689 124.768,54.5224 123.5,50.5C 123.167,50.5 122.833,50.5 122.5,50.5C 122.158,49.6618 121.492,49.3284 120.5,49.5C 120.5,49.1667 120.5,48.8333 120.5,48.5C 122.379,48.6068 122.712,48.1068 121.5,47C 114.35,44.6559 107.016,43.9893 99.5,45C 98.1667,46 96.8333,47 95.5,48C 97.5,48 99.5,48 101.5,48C 99.6854,48.7568 98.0188,49.5902 96.5,50.5C 96.1667,50.5 95.8333,50.5 95.5,50.5C 94.8333,54.8333 94.1667,59.1667 93.5,63.5C 89.7267,44.4526 97.3934,37.6192 116.5,43C 120.491,43.4123 123.658,45.2456 126,48.5C 126.068,53.8283 125.735,59.1616 125,64.5C 124.626,65.4162 124.126,66.2496 123.5,67C 125.093,67.9487 126.426,69.1154 127.5,70.5 Z"/></g>
<g><path style="opacity:1" fill="#d06e59" d="M 122.5,50.5 C 122.833,50.5 123.167,50.5 123.5,50.5C 122.833,53.8333 122.167,57.1667 121.5,60.5C 112.833,60.5 104.167,60.5 95.5,60.5C 95.5,57.1667 95.5,53.8333 95.5,50.5C 95.8333,50.5 96.1667,50.5 96.5,50.5C 105.15,49.4206 113.817,49.4206 122.5,50.5 Z"/></g>
<g><path style="opacity:1" fill="#3a150c" d="M 120.5,48.5 C 120.5,48.8333 120.5,49.1667 120.5,49.5C 115.477,49.0733 110.477,48.4066 105.5,47.5C 107.5,47.1667 109.5,46.8333 111.5,46.5C 114.814,46.3425 117.814,47.0092 120.5,48.5 Z"/></g>
<g><path style="opacity:1" fill="#9d6a5d" d="M 120.5,48.5 C 117.814,47.0092 114.814,46.3425 111.5,46.5C 109.5,46.8333 107.5,47.1667 105.5,47.5C 110.477,48.4066 115.477,49.0733 120.5,49.5C 121.492,49.3284 122.158,49.6618 122.5,50.5C 113.817,49.4206 105.15,49.4206 96.5,50.5C 98.0188,49.5902 99.6854,48.7568 101.5,48C 99.5,48 97.5,48 95.5,48C 96.8333,47 98.1667,46 99.5,45C 107.016,43.9893 114.35,44.6559 121.5,47C 122.712,48.1068 122.379,48.6068 120.5,48.5 Z"/></g>
<g><path style="opacity:1" fill="#af726e" d="M 97.5,73.5 C 93.5842,73.0255 90.2509,74.0255 87.5,76.5C 84.8069,77.5515 82.1402,78.5515 79.5,79.5C 77.7719,84.6208 75.7719,89.6208 73.5,94.5C 72.1451,93.8118 71.1451,92.8118 70.5,91.5C 71.5832,91.4606 72.5832,91.1272 73.5,90.5C 74.0996,86.4821 75.433,82.8154 77.5,79.5C 75.5,79.5 73.5,79.5 71.5,79.5C 80.4278,77.1247 88.9278,73.458 97,68.5C 97.4935,70.1341 97.6602,71.8008 97.5,73.5 Z"/></g>
<g><path style="opacity:1" fill="#301c19" d="M 95.5,50.5 C 95.5,53.8333 95.5,57.1667 95.5,60.5C 95.5,61.5 95.5,62.5 95.5,63.5C 102.138,62.502 108.805,62.3354 115.5,63C 109.769,63.2096 104.103,63.8763 98.5,65C 97.5881,66.6255 98.2547,67.4588 100.5,67.5C 101.492,67.3284 102.158,67.6618 102.5,68.5C 101.5,68.5 100.5,68.5 99.5,68.5C 99.5,70.1667 99.5,71.8333 99.5,73.5C 98.8333,73.5 98.1667,73.5 97.5,73.5C 97.6602,71.8008 97.4935,70.1341 97,68.5C 88.9278,73.458 80.4278,77.1247 71.5,79.5C 69.8008,79.3398 68.1341,79.5065 66.5,80C 64.944,84.8319 66.2774,88.6652 70.5,91.5C 71.1451,92.8118 72.1451,93.8118 73.5,94.5C 75.7719,89.6208 77.7719,84.6208 79.5,79.5C 82.1402,78.5515 84.8069,77.5515 87.5,76.5C 86.6935,77.7281 85.6935,78.7281 84.5,79.5C 80.8051,81.8694 78.3051,85.2027 77,89.5C 74.8364,98.9114 73.003,108.245 71.5,117.5C 71.4735,110.932 72.1401,104.432 73.5,98C 71.0691,95.2277 68.5691,92.3944 66,89.5C 64.2787,86.6846 63.6121,83.6846 64,80.5C 74.482,77.3254 84.6487,73.1587 94.5,68C 94.8333,67.6667 95.1667,67.3333 95.5,67C 94.1772,66.1841 93.5106,65.0174 93.5,63.5C 94.1667,59.1667 94.8333,54.8333 95.5,50.5 Z"/></g>
<g><path style="opacity:1" fill="#c86e5d" d="M 71.5,79.5 C 73.5,79.5 75.5,79.5 77.5,79.5C 75.433,82.8154 74.0996,86.4821 73.5,90.5C 72.5832,91.1272 71.5832,91.4606 70.5,91.5C 66.2774,88.6652 64.944,84.8319 66.5,80C 68.1341,79.5065 69.8008,79.3398 71.5,79.5 Z"/></g>
<g><path style="opacity:1" fill="#d56a59" d="M 146.5,79.5 C 148.735,79.2053 150.735,79.5386 152.5,80.5C 150.836,81.9488 150.002,83.9488 150,86.5C 148.491,88.9193 146.325,89.9193 143.5,89.5C 143.467,85.744 142.467,82.4107 140.5,79.5C 142.5,79.5 144.5,79.5 146.5,79.5 Z"/></g>
<g><path style="opacity:1" fill="#ad6e64" d="M 127.5,70.5 C 128.749,72.1361 130.416,73.3028 132.5,74C 137.306,75.7628 141.972,77.5961 146.5,79.5C 144.5,79.5 142.5,79.5 140.5,79.5C 142.467,82.4107 143.467,85.744 143.5,89.5C 146.325,89.9193 148.491,88.9193 150,86.5C 150.002,83.9488 150.836,81.9488 152.5,80.5C 153.635,87.5213 150.635,92.188 143.5,94.5C 142.014,81.3465 134.68,74.3465 121.5,73.5C 121.34,71.8008 121.506,70.1341 122,68.5C 123.584,69.8613 125.418,70.528 127.5,70.5 Z"/></g>
<g><path style="opacity:1" fill="#f6f5f4" d="M 133.5,91.5 C 135.784,95.0732 137.784,98.7399 139.5,102.5C 140.021,106.481 140.354,110.481 140.5,114.5C 139.197,116.142 137.864,117.809 136.5,119.5C 135.5,119.5 134.5,119.5 133.5,119.5C 129.434,119.693 125.434,119.36 121.5,118.5C 111.402,115.812 101.402,116.145 91.5,119.5C 87.2273,119.919 83.2273,119.252 79.5,117.5C 78.2956,112.189 78.2956,106.856 79.5,101.5C 81.341,99.1515 82.6743,96.4848 83.5,93.5C 84.8333,92.8333 85.8333,91.8333 86.5,90.5C 102.277,86.3434 117.943,86.6767 133.5,91.5 Z"/></g>
<g><path style="opacity:1" fill="#454545" d="M 86.5,90.5 C 85.8333,91.8333 84.8333,92.8333 83.5,93.5C 83.5,93.1667 83.5,92.8333 83.5,92.5C 83.9731,91.0937 84.9731,90.427 86.5,90.5 Z"/></g>
<g><path style="opacity:1" fill="#353535" d="M 100.5,90.5 C 103.166,90.0658 104.333,91.0658 104,93.5C 102.667,92.1667 101.333,92.1667 100,93.5C 99.5304,92.4232 99.6971,91.4232 100.5,90.5 Z"/></g>
<g><path style="opacity:1" fill="#303030" d="M 114.5,90.5 C 117.166,90.0658 118.333,91.0658 118,93.5C 116.667,92.1667 115.333,92.1667 114,93.5C 113.53,92.4232 113.697,91.4232 114.5,90.5 Z"/></g>
<g><path style="opacity:1" fill="#787a78" d="M 133.5,91.5 C 137.791,93.7374 139.791,97.4041 139.5,102.5C 137.784,98.7399 135.784,95.0732 133.5,91.5 Z"/></g>
<g><path style="opacity:1" fill="#4d5655" d="M 83.5,93.5 C 82.6743,96.4848 81.341,99.1515 79.5,101.5C 79.7936,98.2459 81.127,95.5792 83.5,93.5 Z"/></g>
<g><path style="opacity:1" fill="#160d0c" d="M 102.5,105.5 C 98.686,105.349 97.0193,103.349 97.5,99.5C 99.5726,97.0602 101.906,96.8935 104.5,99C 100.534,100.612 100.534,102.279 104.5,104C 103.584,104.278 102.918,104.778 102.5,105.5 Z"/></g>
<g><path style="opacity:1" fill="#0c0e0e" d="M 119.5,102.5 C 118.817,104.176 117.483,104.843 115.5,104.5C 113.313,102.718 112.98,100.552 114.5,98C 116.728,97.1799 118.728,97.5132 120.5,99C 117.347,99.8835 117.014,101.05 119.5,102.5 Z"/></g>
<g><path style="opacity:1" fill="#e3a196" d="M 115.5,104.5 C 117.483,104.843 118.817,104.176 119.5,102.5C 126.847,100.856 129.513,103.856 127.5,111.5C 124.5,111.5 121.5,111.5 118.5,111.5C 118.261,109.533 118.594,107.699 119.5,106C 117.942,105.79 116.609,105.29 115.5,104.5 Z"/></g>
<g><path style="opacity:1" fill="#4e4a45" d="M 79.5,101.5 C 78.2956,106.856 78.2956,112.189 79.5,117.5C 78.8333,117.5 78.1667,117.5 77.5,117.5C 77.3343,113.154 77.501,108.821 78,104.5C 78.2321,103.263 78.7321,102.263 79.5,101.5 Z"/></g>
<g><path style="opacity:1" fill="#b88175" d="M 106.5,107.5 C 108.5,107.5 110.5,107.5 112.5,107.5C 112.299,111.35 110.466,112.35 107,110.5C 106.517,109.552 106.351,108.552 106.5,107.5 Z"/></g>
<g><path style="opacity:1" fill="#e8a59c" d="M 97.5,99.5 C 97.0193,103.349 98.686,105.349 102.5,105.5C 100.964,110.791 97.2973,112.791 91.5,111.5C 91.1866,108.753 91.52,106.086 92.5,103.5C 93.7362,102.754 95.0695,102.421 96.5,102.5C 96.2627,101.209 96.596,100.209 97.5,99.5 Z"/></g>
<g><path style="opacity:1" fill="#3a3a39" d="M 139.5,102.5 C 141.25,106.183 141.917,110.183 141.5,114.5C 141.167,114.5 140.833,114.5 140.5,114.5C 140.354,110.481 140.021,106.481 139.5,102.5 Z"/></g>
<g><path style="opacity:1" fill="#ece8e7" d="M 84.5,79.5 C 83.8288,80.8471 83.8288,82.0138 84.5,83C 83.1667,84.3333 81.8333,85.6667 80.5,87C 81.3081,87.3076 81.9747,87.8076 82.5,88.5C 80.3689,88.3378 79.3689,89.6711 79.5,92.5C 80.8333,92.5 82.1667,92.5 83.5,92.5C 83.5,92.8333 83.5,93.1667 83.5,93.5C 81.127,95.5792 79.7936,98.2459 79.5,101.5C 78.7321,102.263 78.2321,103.263 78,104.5C 77.501,108.821 77.3343,113.154 77.5,117.5C 77.4312,122.854 77.0978,128.187 76.5,133.5C 75.0813,134.451 73.4147,134.784 71.5,134.5C 71.5,128.833 71.5,123.167 71.5,117.5C 73.003,108.245 74.8364,98.9114 77,89.5C 78.3051,85.2027 80.8051,81.8694 84.5,79.5 Z"/></g>
<g><path style="opacity:1" fill="#3c3a45" d="M 140.5,114.5 C 140.631,117.367 139.297,119.033 136.5,119.5C 137.864,117.809 139.197,116.142 140.5,114.5 Z"/></g>
<g><path style="opacity:1" fill="#a97163" d="M 121.5,118.5 C 125.434,119.36 129.434,119.693 133.5,119.5C 131.5,120.167 129.5,120.833 127.5,121.5C 124.796,120.286 122.129,120.286 119.5,121.5C 111.979,119.197 104.313,118.864 96.5,120.5C 103.912,117.017 111.578,116.684 119.5,119.5C 120.416,119.457 121.083,119.124 121.5,118.5 Z"/></g>
<g><path style="opacity:1" fill="#f5f6f6" d="M 162.5,135.5 C 163.818,143.371 161.818,150.205 156.5,156C 149.023,160.151 142.689,158.985 137.5,152.5C 137.5,149.5 137.5,146.5 137.5,143.5C 139.054,142.086 140.388,140.419 141.5,138.5C 139.054,137.573 138.221,135.906 139,133.5C 141.74,132.718 144.574,132.218 147.5,132C 148.293,130.915 148.96,129.748 149.5,128.5C 148.503,124.521 148.003,120.521 148,116.5C 154.309,121.823 159.143,128.157 162.5,135.5 Z"/></g>
<g><path style="opacity:1" fill="#532e28" d="M 121.5,118.5 C 121.083,119.124 120.416,119.457 119.5,119.5C 111.578,116.684 103.912,117.017 96.5,120.5C 96.1667,120.5 95.8333,120.5 95.5,120.5C 93.901,120.768 92.5676,120.434 91.5,119.5C 101.402,116.145 111.402,115.812 121.5,118.5 Z"/></g>
<g><path style="opacity:1" fill="#b16d5e" d="M 77.5,117.5 C 78.1667,117.5 78.8333,117.5 79.5,117.5C 83.2273,119.252 87.2273,119.919 91.5,119.5C 92.5676,120.434 93.901,120.768 95.5,120.5C 93.9522,121.794 91.9522,122.461 89.5,122.5C 86.1359,122.107 82.8026,121.94 79.5,122C 78.6051,125.095 78.6051,128.262 79.5,131.5C 80.5,131.5 81.5,131.5 82.5,131.5C 83.1621,135.466 83.4955,139.466 83.5,143.5C 82.0937,143.973 81.427,144.973 81.5,146.5C 81.1667,146.5 80.8333,146.5 80.5,146.5C 79.8142,142.881 79.6476,139.215 80,135.5C 79.1841,134.177 78.0174,133.511 76.5,133.5C 77.0978,128.187 77.4312,122.854 77.5,117.5 Z"/></g>
<g><path style="opacity:1" fill="#1b1518" d="M 71.5,117.5 C 71.5,123.167 71.5,128.833 71.5,134.5C 73.4147,134.784 75.0813,134.451 76.5,133.5C 78.0174,133.511 79.1841,134.177 80,135.5C 79.6476,139.215 79.8142,142.881 80.5,146.5C 76.6717,144.481 76.1717,142.148 79,139.5C 79.6667,138.5 79.6667,137.5 79,136.5C 76,135.833 73,135.167 70,134.5C 69.8778,129.309 69.7111,124.309 69.5,119.5C 69.8333,118.5 70.5,117.833 71.5,117.5 Z"/></g>
<g><path style="opacity:1" fill="#cf6f58" d="M 119.5,121.5 C 107.555,128.748 95.5549,136.082 83.5,143.5C 83.4955,139.466 83.1621,135.466 82.5,131.5C 81.5,131.5 80.5,131.5 79.5,131.5C 78.6051,128.262 78.6051,125.095 79.5,122C 82.8026,121.94 86.1359,122.107 89.5,122.5C 91.9522,122.461 93.9522,121.794 95.5,120.5C 95.8333,120.5 96.1667,120.5 96.5,120.5C 104.313,118.864 111.979,119.197 119.5,121.5 Z"/></g>
<g><path style="opacity:1" fill="#252525" d="M 145.5,96.5 C 146.005,102.539 146.838,108.539 148,114.5C 151.333,117.833 154.667,121.167 158,124.5C 160.575,127.726 162.075,131.393 162.5,135.5C 159.143,128.157 154.309,121.823 148,116.5C 148.003,120.521 148.503,124.521 149.5,128.5C 148.96,129.748 148.293,130.915 147.5,132C 144.574,132.218 141.74,132.718 139,133.5C 138.221,135.906 139.054,137.573 141.5,138.5C 140.388,140.419 139.054,142.086 137.5,143.5C 137.751,141.83 138.418,140.33 139.5,139C 137.294,136.791 136.96,134.291 138.5,131.5C 141.126,130.551 143.792,130.551 146.5,131.5C 146.864,120.327 145.864,109.327 143.5,98.5C 144.167,97.8333 144.833,97.1667 145.5,96.5 Z"/></g>
<g><path style="opacity:1" fill="#f7f6f6" d="M 69.5,119.5 C 69.7111,124.309 69.8778,129.309 70,134.5C 73,135.167 76,135.833 79,136.5C 79.6667,137.5 79.6667,138.5 79,139.5C 76.1717,142.148 76.6717,144.481 80.5,146.5C 80.8802,160.65 74.5469,164.817 61.5,159C 54.9518,151.666 53.7851,143.499 58,134.5C 61.3576,129.11 65.1909,124.11 69.5,119.5 Z"/></g>
<g><path style="opacity:1" fill="#a097c7" d="M 140.5,114.5 C 140.833,114.5 141.167,114.5 141.5,114.5C 141.665,117.518 141.498,120.518 141,123.5C 140.5,124 140,124.5 139.5,125C 122.354,134.661 105.354,144.495 88.5,154.5C 87.1667,154.5 85.8333,154.5 84.5,154.5C 84.3525,149.87 86.6858,147.37 91.5,147C 92.3366,145.989 92.67,144.822 92.5,143.5C 93.5,143.5 94.5,143.5 95.5,143.5C 95.5,142.5 95.5,141.5 95.5,140.5C 100.201,139.649 104.201,137.482 107.5,134C 108.793,133.51 110.127,133.343 111.5,133.5C 111.5,132.5 111.5,131.5 111.5,130.5C 113.199,130.66 114.866,130.494 116.5,130C 118.026,128.113 120.026,127.113 122.5,127C 124.59,125.412 126.257,123.578 127.5,121.5C 129.5,120.833 131.5,120.167 133.5,119.5C 134.5,119.5 135.5,119.5 136.5,119.5C 139.297,119.033 140.631,117.367 140.5,114.5 Z"/></g>
<g><path style="opacity:1" fill="#e9be95" d="M 127.5,121.5 C 126.257,123.578 124.59,125.412 122.5,127C 120.026,127.113 118.026,128.113 116.5,130C 114.866,130.494 113.199,130.66 111.5,130.5C 111.5,131.5 111.5,132.5 111.5,133.5C 110.127,133.343 108.793,133.51 107.5,134C 104.201,137.482 100.201,139.649 95.5,140.5C 95.5,141.5 95.5,142.5 95.5,143.5C 94.5,143.5 93.5,143.5 92.5,143.5C 89.6377,146.01 86.3044,147.677 82.5,148.5C 82.1667,147.833 81.8333,147.167 81.5,146.5C 81.427,144.973 82.0937,143.973 83.5,143.5C 95.5549,136.082 107.555,128.748 119.5,121.5C 122.129,120.286 124.796,120.286 127.5,121.5 Z"/></g>
<g><path style="opacity:1" fill="#f6f3f1" d="M 143.5,94.5 C 143.5,95.8333 143.5,97.1667 143.5,98.5C 145.864,109.327 146.864,120.327 146.5,131.5C 143.792,130.551 141.126,130.551 138.5,131.5C 136.96,134.291 137.294,136.791 139.5,139C 138.418,140.33 137.751,141.83 137.5,143.5C 135.22,146.146 134.887,149.146 136.5,152.5C 127.156,159.49 117.489,166.157 107.5,172.5C 105.063,172.886 103.063,174.053 101.5,176C 110.343,176.824 119.01,176.657 127.5,175.5C 132.385,174.464 136.218,171.798 139,167.5C 139.204,164.203 140.037,161.203 141.5,158.5C 142.708,159.234 144.041,159.567 145.5,159.5C 144.797,170.375 139.131,177.209 128.5,180C 115.841,181.945 103.174,181.945 90.5,180C 81.9264,177.76 76.2597,172.426 73.5,164C 74.3557,162.405 75.6891,161.572 77.5,161.5C 81.4394,159.554 85.106,157.221 88.5,154.5C 105.354,144.495 122.354,134.661 139.5,125C 140,124.5 140.5,124 141,123.5C 141.498,120.518 141.665,117.518 141.5,114.5C 141.917,110.183 141.25,106.183 139.5,102.5C 139.791,97.4041 137.791,93.7374 133.5,91.5C 132.264,89.1725 130.264,88.0058 127.5,88C 114.067,85.6714 100.733,86.0047 87.5,89C 86.944,89.3826 86.6107,89.8826 86.5,90.5C 84.9731,90.427 83.9731,91.0937 83.5,92.5C 82.1667,92.5 80.8333,92.5 79.5,92.5C 79.3689,89.6711 80.3689,88.3378 82.5,88.5C 81.9747,87.8076 81.3081,87.3076 80.5,87C 81.8333,85.6667 83.1667,84.3333 84.5,83C 83.8288,82.0138 83.8288,80.8471 84.5,79.5C 85.6935,78.7281 86.6935,77.7281 87.5,76.5C 100.056,74.4614 112.723,73.9614 125.5,75C 134.848,78.511 140.848,85.011 143.5,94.5 Z"/></g>
<g><path style="opacity:1" fill="#646464" d="M 133.5,91.5 C 117.943,86.6767 102.277,86.3434 86.5,90.5C 86.6107,89.8826 86.944,89.3826 87.5,89C 100.733,86.0047 114.067,85.6714 127.5,88C 130.264,88.0058 132.264,89.1725 133.5,91.5 Z"/></g>
<g><path style="opacity:1" fill="#2d2d2d" d="M 69.5,119.5 C 65.1909,124.11 61.3576,129.11 58,134.5C 53.7851,143.499 54.9518,151.666 61.5,159C 74.5469,164.817 80.8802,160.65 80.5,146.5C 80.8333,146.5 81.1667,146.5 81.5,146.5C 81.8333,147.167 82.1667,147.833 82.5,148.5C 82.5923,153.563 80.9256,157.897 77.5,161.5C 75.6891,161.572 74.3557,162.405 73.5,164C 76.2597,172.426 81.9264,177.76 90.5,180C 103.174,181.945 115.841,181.945 128.5,180C 139.131,177.209 144.797,170.375 145.5,159.5C 144.041,159.567 142.708,159.234 141.5,158.5C 140.71,157.599 139.71,156.932 138.5,156.5C 137.566,155.432 137.232,154.099 137.5,152.5C 142.689,158.985 149.023,160.151 156.5,156C 161.818,150.205 163.818,143.371 162.5,135.5C 164.335,142.067 163.502,148.4 160,154.5C 156.67,158.248 152.503,159.915 147.5,159.5C 147.17,165.333 145.003,170.333 141,174.5C 140.032,178.882 138.532,183.049 136.5,187C 130.051,189.431 123.385,190.098 116.5,189C 114.92,185.916 112.586,183.749 109.5,182.5C 107.486,182.437 105.819,183.103 104.5,184.5C 104.084,186.752 102.751,188.252 100.5,189C 95.1667,189.667 89.8333,189.667 84.5,189C 83,187.5 81.5,186 80,184.5C 78.404,177.322 75.7373,170.655 72,164.5C 64.9206,163.96 59.5873,160.627 56,154.5C 54.4826,148.92 54.1492,143.253 55,137.5C 58.2649,130.085 63.0983,124.085 69.5,119.5 Z"/></g>
<g><path style="opacity:1" fill="#ae979a" d="M 107.5,172.5 C 107.5,173.5 107.5,174.5 107.5,175.5C 108.833,175.5 110.167,175.5 111.5,175.5C 116.833,175.5 122.167,175.5 127.5,175.5C 119.01,176.657 110.343,176.824 101.5,176C 103.063,174.053 105.063,172.886 107.5,172.5 Z"/></g>
<g><path style="opacity:1" fill="#cc6f5c" d="M 138.5,156.5 C 139.71,156.932 140.71,157.599 141.5,158.5C 140.037,161.203 139.204,164.203 139,167.5C 136.218,171.798 132.385,174.464 127.5,175.5C 122.167,175.5 116.833,175.5 111.5,175.5C 117.096,170.691 123.43,166.857 130.5,164C 133.05,161.252 135.717,158.752 138.5,156.5 Z"/></g>
<g><path style="opacity:1" fill="#b38eab" d="M 136.5,152.5 C 136.833,152.5 137.167,152.5 137.5,152.5C 137.232,154.099 137.566,155.432 138.5,156.5C 135.717,158.752 133.05,161.252 130.5,164C 123.43,166.857 117.096,170.691 111.5,175.5C 110.167,175.5 108.833,175.5 107.5,175.5C 107.5,174.5 107.5,173.5 107.5,172.5C 117.489,166.157 127.156,159.49 136.5,152.5 Z"/></g>
<g><path style="opacity:1" fill="#c98983" d="M 93.5,156.5 C 95.8717,158.743 98.3717,161.077 101,163.5C 101.346,165.218 101.846,166.885 102.5,168.5C 101.652,170.283 100.319,170.783 98.5,170C 96.2908,166.623 94.2908,163.123 92.5,159.5C 92.685,158.416 93.0183,157.416 93.5,156.5 Z"/></g>
<g><path style="opacity:1" fill="#a298b4" d="M 92.5,143.5 C 92.67,144.822 92.3366,145.989 91.5,147C 86.6858,147.37 84.3525,149.87 84.5,154.5C 85.8333,154.5 87.1667,154.5 88.5,154.5C 85.106,157.221 81.4394,159.554 77.5,161.5C 80.9256,157.897 82.5923,153.563 82.5,148.5C 86.3044,147.677 89.6377,146.01 92.5,143.5 Z"/></g>
<g><path style="opacity:1" fill="#c68272" d="M 105.5,146.5 C 107.167,146.5 108.833,146.5 110.5,146.5C 110.784,149.254 111.451,151.92 112.5,154.5C 116.44,152.764 118.107,154.097 117.5,158.5C 115.857,158.52 114.524,157.853 113.5,156.5C 113.167,156.833 112.833,157.167 112.5,157.5C 114.327,159.487 115.327,161.821 115.5,164.5C 113.774,164.815 112.107,164.981 110.5,165C 111.517,163.951 111.684,162.784 111,161.5C 107.445,167.044 106.112,166.711 107,160.5C 103.89,161.673 103.723,161.173 106.5,159C 103.814,157.632 101.147,156.299 98.5,155C 99.3366,153.989 99.67,152.822 99.5,151.5C 103.56,152.152 105.56,150.485 105.5,146.5 Z"/></g>
<g><path style="opacity:1" fill="#bc8278" d="M 126.5,146.5 C 129.745,146.293 131.745,147.793 132.5,151C 130.208,152.29 128.208,153.957 126.5,156C 121.648,158.487 119.481,156.987 120,151.5C 122.352,149.97 124.519,148.303 126.5,146.5 Z"/></g>
<g><path style="opacity:1" fill="#fbdccf" d="M 125.5,149.5 C 128.108,151.381 127.775,153.048 124.5,154.5C 123.348,152.603 123.681,150.936 125.5,149.5 Z"/></g>
<g><path style="opacity:1" fill="#404441" d="M 137.5,143.5 C 137.5,146.5 137.5,149.5 137.5,152.5C 137.167,152.5 136.833,152.5 136.5,152.5C 134.887,149.146 135.22,146.146 137.5,143.5 Z"/></g>
<g><path style="opacity:1" fill="#b17e75" d="M 116.5,141.5 C 117.5,141.5 118.5,141.5 119.5,141.5C 119.215,143.288 119.548,144.955 120.5,146.5C 122.756,145.579 123.756,143.912 123.5,141.5C 125.827,141.247 127.827,141.914 129.5,143.5C 125.381,146.299 121.047,148.632 116.5,150.5C 116.5,147.5 116.5,144.5 116.5,141.5 Z"/></g>
<g><path style="opacity:1" fill="#eceded" d="M 136.5,177.5 C 137.376,177.369 138.043,177.702 138.5,178.5C 137.568,180.795 136.735,183.129 136,185.5C 135.25,186.126 134.416,186.626 133.5,187C 128.167,187.667 122.833,187.667 117.5,187C 116.313,185.981 115.313,184.814 114.5,183.5C 119.521,182.756 124.521,181.923 129.5,181C 132.174,180.33 134.507,179.163 136.5,177.5 Z"/></g>
<g><path style="opacity:1" fill="#efefef" d="M 104.5,184.5 C 103.373,185.122 102.373,185.955 101.5,187C 96.1667,187.667 90.8333,187.667 85.5,187C 81.7047,184.958 80.2047,181.791 81,177.5C 83.9696,179.401 87.1363,180.901 90.5,182C 95.6059,181.886 100.273,182.72 104.5,184.5 Z"/></g>
</svg>
